<?xml version="1.0" encoding="utf-8"?>
<!-- Generator: Adobe Illustrator 22.0.1, SVG Export Plug-In . SVG Version: 6.00 Build 0)  -->
<svg version="1.1" id="Layer_1" xmlns="http://www.w3.org/2000/svg" xmlns:xlink="http://www.w3.org/1999/xlink" x="0px" y="0px"
	 viewBox="0 0 512 512" style="enable-background:new 0 0 512 512;" xml:space="preserve">
<style type="text/css">
	.st0{fill:url(#SVGID_1_);}
	.st1{fill:url(#SVGID_2_);}
	.st2{fill:url(#SVGID_3_);}
	.st3{fill:url(#SVGID_4_);}
	.st4{fill:url(#SVGID_5_);}
	.st5{fill:url(#SVGID_6_);}
	.st6{display:none;fill:url(#SVGID_7_);}
	.st7{display:none;fill:#FFFFFF;}
</style>
<g>
	<radialGradient id="SVGID_1_" cx="495.0913" cy="154.3266" r="576.2792" gradientUnits="userSpaceOnUse">
		<stop  offset="1.082549e-07" style="stop-color:#38C7FF"/>
		<stop  offset="1" style="stop-color:#10D4C4"/>
	</radialGradient>
	<path class="st0" d="M43.2,215.8v14.6c0,2.2,1.8,4,4,4H55c2.2,0,4,1.8,4,4v10.1c0,2.2-1.8,4-4,4h-7.8c-2.2,0-4,1.8-4,4v42.1
		c0,3.4,0.7,5.9,2,7.3c1.3,1.5,3.8,2.2,7.5,2.2c1.1,0,2.1,0,3.1-0.1c2.3-0.1,4.2,1.7,4.2,4l0,11.1c0,1.9-1.3,3.5-3.1,3.9
		c-3.9,0.9-7.8,1.4-11.8,1.4c-17.3,0-26.1-8.7-26.5-26.2v-45.8c0-2.2-1.8-4-4-4H9c-2.2,0-4-1.8-4-4v-10.1c0-2.2,1.8-4,4-4h5.5
		c2.2,0,4-1.8,4-4v-26.7c0-3.1,3.5-5.1,6.1-3.4l15,9.3C41.8,210.9,43.2,213.3,43.2,215.8z"/>
	<radialGradient id="SVGID_2_" cx="495.0913" cy="154.3266" r="576.2792" gradientUnits="userSpaceOnUse">
		<stop  offset="1.082549e-07" style="stop-color:#38C7FF"/>
		<stop  offset="1" style="stop-color:#10D4C4"/>
	</radialGradient>
	<path class="st1" d="M133.2,253.1c0,2.4-2,4.1-4.3,3.9c-1.7-0.1-3.2-0.2-4.6-0.2c-8.9,0-14.9,2.9-17.9,8.6
		c-0.3,0.6-0.4,1.2-0.4,1.9l0,55.5c0,2.2-1.8,4-4,4H85.3c-2.2,0-4-1.8-4-4v-84.4c0-2.2,1.8-4,4-4h16.4c1.6,0,2.9,1.3,3,2.9v0
		c0.2,2.6,3.3,3.8,5.2,1.9c4.3-4.3,9.6-6.5,15.9-6.5c1.4,0,2.8,0.1,4.2,0.3c1.9,0.3,3.5,2.1,3.4,4L133.2,253.1z"/>
	<radialGradient id="SVGID_3_" cx="495.0913" cy="154.3266" r="576.2792" gradientUnits="userSpaceOnUse">
		<stop  offset="1.082549e-07" style="stop-color:#38C7FF"/>
		<stop  offset="1" style="stop-color:#10D4C4"/>
	</radialGradient>
	<path class="st2" d="M200.4,324.9l0-0.1c-0.9-2.5-4.1-3.5-6.2-1.9c-5.2,3.8-11.4,5.7-18.7,5.7c-9.1,0-16.6-2.6-22.5-7.9
		c-6-5.2-8.9-11.8-8.9-19.8c0-9.8,3.6-17.3,10.9-22.6c7.3-5.2,17.8-7.9,31.5-7.9h7.3c2.2,0,4-1.8,4-4v-1.3c0-4.3-1.1-7.7-3.3-10.3
		c-2.2-2.6-5.7-3.8-10.4-3.8c-5,0-8.8,1.5-11.2,4.4c-0.9,1.1-1.4,2.4-1.8,3.7c-0.5,1.8-2,3.1-3.9,3.1h-16.8c-2.6,0-4.5-2.1-4-4.7
		c0.7-3.6,2.2-6.9,4.5-10.1c3.3-4.6,8-8.1,14-10.7c6-2.6,12.8-3.9,20.3-3.9c11.4,0,20.4,2.9,27.1,8.6c6.7,5.7,10,13.8,10,24.1v40.1
		c0.1,8.8,1.3,15.4,3.7,19.9v1.5h-23C202,326.8,200.9,326.1,200.4,324.9z M180.9,309.7c3.6,0,7-0.8,10.1-2.4
		c2.7-1.4,4.8-3.3,6.2-5.5c0.4-0.6,0.6-1.4,0.6-2.1v-10.7c0-2.2-1.8-4-4-4h-5.2c-12.4,0-18.9,4.3-19.7,12.8l-0.1,1.5
		c0,3.1,1.1,5.6,3.2,7.6C174.2,308.7,177.1,309.7,180.9,309.7z"/>
	<radialGradient id="SVGID_4_" cx="495.0913" cy="154.3266" r="576.2792" gradientUnits="userSpaceOnUse">
		<stop  offset="1.082549e-07" style="stop-color:#38C7FF"/>
		<stop  offset="1" style="stop-color:#10D4C4"/>
	</radialGradient>
	<path class="st3" d="M242.9,279.9c0-14.4,3.2-25.9,9.7-34.4c6.5-8.5,15.3-12.8,26.5-12.8c6.1,0,11.4,1.5,16.1,4.6
		c2.7,1.8,6.2-0.1,6.2-3.3l0-46.5c0-3.2,3.5-5.1,6.1-3.4l15.1,9.4c2.2,1.4,3.5,3.8,3.5,6.3v123c0,2.2-1.8,4-4,4h-15.6
		c-1.5,0-2.8-1.2-3-2.7l-0.1-0.8c-0.3-2.4-3.2-3.5-5-1.9c-5.4,4.7-11.9,7.1-19.5,7.1c-10.9,0-19.6-4.3-26.2-12.9
		C246.2,307.1,242.9,295.2,242.9,279.9z M267.6,281.8c0,8.7,1.5,15.3,4.5,19.9c3,4.6,7.4,6.9,13.2,6.9c7.3,0,12.5-2.9,15.7-8.7
		c0.3-0.6,0.5-1.3,0.5-1.9v-34.5c0-0.7-0.1-1.3-0.5-1.9c-3.1-5.8-8.3-8.8-15.5-8.8C273.6,252.8,267.6,262.4,267.6,281.8z"/>
	<radialGradient id="SVGID_5_" cx="495.0913" cy="154.3266" r="576.2792" gradientUnits="userSpaceOnUse">
		<stop  offset="1.082549e-07" style="stop-color:#38C7FF"/>
		<stop  offset="1" style="stop-color:#10D4C4"/>
	</radialGradient>
	<path class="st4" d="M346.8,279.8c0-9.2,1.8-17.3,5.3-24.5c3.5-7.2,8.6-12.7,15.2-16.7c6.6-3.9,14.3-5.9,23.1-5.9
		c12.5,0,22.7,3.8,30.5,11.4c7.9,7.6,12.3,18,13.2,31.1l0.2,6.3c0,14.2-4,25.6-11.9,34.1c-7.9,8.6-18.5,12.9-31.9,12.9
		c-13.3,0-24-4.3-31.9-12.8c-7.9-8.5-11.9-20.2-11.9-34.9V279.8z M371.4,281.5c0,8.8,1.7,15.5,5,20.1c3.3,4.6,8,7,14.2,7
		c6,0,10.6-2.3,14-6.9c3.4-4.6,5-11.9,5-22c0-8.6-1.7-15.3-5-20c-3.4-4.7-8.1-7.1-14.2-7.1c-6,0-10.7,2.4-14,7.1
		C373.1,264.4,371.4,271.7,371.4,281.5z"/>
	<radialGradient id="SVGID_6_" cx="495.0913" cy="154.3266" r="576.2792" gradientUnits="userSpaceOnUse">
		<stop  offset="1.082549e-07" style="stop-color:#38C7FF"/>
		<stop  offset="1" style="stop-color:#10D4C4"/>
	</radialGradient>
	<path class="st5" d="M506.8,253.1c0,2.4-2,4.1-4.3,3.9c-1.7-0.1-3.2-0.2-4.6-0.2c-8.9,0-14.9,2.9-17.9,8.6
		c-0.3,0.6-0.4,1.2-0.4,1.9l0,55.5c0,2.2-1.8,4-4,4h-16.6c-2.2,0-4-1.8-4-4v-84.4c0-2.2,1.8-4,4-4h16.4c1.6,0,2.9,1.3,3,2.9v0
		c0.2,2.6,3.3,3.8,5.2,1.9c4.3-4.3,9.6-6.5,15.9-6.5c1.4,0,2.8,0.1,4.2,0.3c1.9,0.3,3.5,2.1,3.4,4L506.8,253.1z"/>
</g>
<radialGradient id="SVGID_7_" cx="1061.5502" cy="-15.396" r="755.4501" gradientUnits="userSpaceOnUse">
	<stop  offset="1.082549e-07" style="stop-color:#38C7FF"/>
	<stop  offset="1" style="stop-color:#10D4C4"/>
</radialGradient>
<path class="st6" d="M983.4,512H592.6c-33.5,0-60.6-27.1-60.6-60.6V60.6C532,27.1,559.1,0,592.6,0h390.8c33.5,0,60.6,27.1,60.6,60.6
	v390.8C1044,484.9,1016.9,512,983.4,512z"/>
<path class="st7" d="M819.9,108.5v56.4c0,1.9,1.6,3.5,3.5,3.5h40c1.9,0,3.5,1.6,3.5,3.5v46.8c0,1.9-1.6,3.5-3.5,3.5h-40
	c-1.9,0-3.5,1.6-3.5,3.5v133.6c0,10.2,1.9,17.4,5.8,21.8c3.9,4.4,11.3,6.6,22.4,6.6c6.4,0,12.3-0.4,17.6-1.1c2.1-0.3,4,1.3,4,3.5
	l0,48.8c-0.9,1.3-1.6,2.1-2.5,3.4c-13.6,3.9-27.6,5.9-41.9,5.9c-51.5,0-77.7-26-78.7-78V225.8c0-1.9-1.6-3.5-3.5-3.5h-33.1
	c-1.9,0-3.5-1.6-3.5-3.5V172c0-1.9,1.6-3.5,3.5-3.5H743c1.9,0,3.5-1.6,3.5-3.5V61.9c0-2.8,3-4.4,5.4-3l61.6,38
	C817.4,99.4,819.9,103.8,819.9,108.5z"/>
</svg>
