<svg id="Layer_1" data-name="Layer 1" xmlns="http://www.w3.org/2000/svg" viewBox="0 0 315.99 91.34"><defs><style>.cls-1{fill:#008ba6;}</style></defs><title>logo</title><path class="cls-1" d="M122,230.72v9.16a2.53,2.53,0,0,0,2.53,2.53h4.89a2.54,2.54,0,0,1,2.53,2.53v6.34a2.53,2.53,0,0,1-2.53,2.53h-4.89a2.53,2.53,0,0,0-2.53,2.53v26.51c0,2.15.41,3.69,1.24,4.62s2.4,1.4,4.73,1.4c.64,0,1.25,0,1.84-.05a2.54,2.54,0,0,1,2.73,2.52v7a2.55,2.55,0,0,1-2,2.48,32.07,32.07,0,0,1-7.4.86q-16.35,0-16.67-16.51V256.34a2.53,2.53,0,0,0-2.53-2.53h-3.44A2.53,2.53,0,0,1,98,251.28v-6.34a2.54,2.54,0,0,1,2.53-2.53H104a2.53,2.53,0,0,0,2.53-2.53V223.05a2.53,2.53,0,0,1,3.86-2.15l9.46,5.84A4.68,4.68,0,0,1,122,230.72Z" transform="translate(-98 -210.33)"/><path class="cls-1" d="M178.72,254.2a2.54,2.54,0,0,1-2.77,2.48c-1-.08-2-.13-2.86-.13q-8.4,0-11.28,5.41a2.46,2.46,0,0,0-.28,1.19v34.91a2.53,2.53,0,0,1-2.53,2.53H148.52a2.53,2.53,0,0,1-2.53-2.53V244.94a2.53,2.53,0,0,1,2.53-2.53h10.34a1.92,1.92,0,0,1,1.92,1.81h0a1.91,1.91,0,0,0,3.26,1.23,13.57,13.57,0,0,1,10-4.11,17.48,17.48,0,0,1,2.74.21,2.51,2.51,0,0,1,2.07,2.53Z" transform="translate(-98 -210.33)"/><path class="cls-1" d="M221,299.31v0A2.53,2.53,0,0,0,217.1,298a19.28,19.28,0,0,1-11.78,3.63q-8.55,0-14.17-4.95a15.92,15.92,0,0,1-5.62-12.47q0-9.25,6.86-14.2t19.81-5h4.62a2.54,2.54,0,0,0,2.54-2.53v-.8a9.67,9.67,0,0,0-2.07-6.46c-1.39-1.61-3.56-2.42-6.54-2.42a9.21,9.21,0,0,0-6.15,1.89,6,6,0,0,0-2,3.13,2.57,2.57,0,0,1-2.45,2H189.61a2.56,2.56,0,0,1-2.48-3.11,16.17,16.17,0,0,1,2.81-6.25,20.68,20.68,0,0,1,8.82-6.75,32.18,32.18,0,0,1,12.8-2.44q10.75,0,17.07,5.4T235,261.93v25.22q.06,8.28,2.31,12.53v.91H222.81A2,2,0,0,1,221,299.31Zm-12.28-9.52a13.27,13.27,0,0,0,6.34-1.54,10.13,10.13,0,0,0,3.93-3.48,2.5,2.5,0,0,0,.38-1.36v-6.74a2.54,2.54,0,0,0-2.54-2.53h-3.27q-11.67,0-12.42,8.06l-.06.92a6.19,6.19,0,0,0,2.05,4.78A7.9,7.9,0,0,0,208.71,289.79Z" transform="translate(-98 -210.33)"/><path class="cls-1" d="M247.77,271.07q0-13.6,6.1-21.67t16.7-8.06a17.91,17.91,0,0,1,10.16,2.92,2.52,2.52,0,0,0,3.87-2.14V212.87a2.53,2.53,0,0,1,3.87-2.15l9.51,5.9a4.71,4.71,0,0,1,2.22,4v77.45a2.53,2.53,0,0,1-2.53,2.53h-9.8a1.92,1.92,0,0,1-1.91-1.68l-.06-.49a1.91,1.91,0,0,0-3.12-1.24,18.08,18.08,0,0,1-12.32,4.49A19.77,19.77,0,0,1,254,293.58Q247.77,285.48,247.77,271.07Zm15.54,1.16q0,8.19,2.85,12.55a9.28,9.28,0,0,0,8.28,4.36q6.85,0,9.86-5.5a2.52,2.52,0,0,0,.3-1.23V260.7a2.58,2.58,0,0,0-.29-1.22q-3-5.51-9.76-5.51Q263.32,254,263.31,272.23Z" transform="translate(-98 -210.33)"/><path class="cls-1" d="M313.13,271a34.55,34.55,0,0,1,3.33-15.44,24.38,24.38,0,0,1,9.6-10.48,27.91,27.91,0,0,1,14.54-3.71q11.77,0,19.23,7.2t8.3,19.58l.11,4q0,13.4-7.47,21.49t-20.06,8.09q-12.58,0-20.08-8.07t-7.5-21.94Zm15.54,1.1q0,8.3,3.11,12.68a11.21,11.21,0,0,0,17.75.06q3.17-4.33,3.17-13.87,0-8.13-3.17-12.6a10.32,10.32,0,0,0-8.93-4.47,10.15,10.15,0,0,0-8.82,4.44Q328.67,262.75,328.67,272.07Z" transform="translate(-98 -210.33)"/><path class="cls-1" d="M413.85,254.2a2.54,2.54,0,0,1-2.77,2.48c-1-.08-2-.13-2.86-.13q-8.4,0-11.28,5.41a2.46,2.46,0,0,0-.28,1.19v34.91a2.53,2.53,0,0,1-2.53,2.53H383.65a2.53,2.53,0,0,1-2.53-2.53V244.94a2.53,2.53,0,0,1,2.53-2.53H394a1.92,1.92,0,0,1,1.92,1.81h0a1.91,1.91,0,0,0,3.26,1.23,13.57,13.57,0,0,1,10-4.11,17.58,17.58,0,0,1,2.74.21,2.51,2.51,0,0,1,2.07,2.53Z" transform="translate(-98 -210.33)"/></svg>